<?xml version="1.0" encoding="UTF-8" standalone="no"?>
<!-- Created with Inkscape (http://www.inkscape.org/) -->

<svg
   width="600"
   height="600"
   viewBox="0 0 158.75 158.75"
   version="1.1"
   id="svg1"
   xml:space="preserve"
   xmlns="http://www.w3.org/2000/svg"
   xmlns:svg="http://www.w3.org/2000/svg"><defs
     id="defs1" /><g
     id="layer1"><path
       style="fill:#ef481b;fill-opacity:1;stroke:none;stroke-width:0.1"
       d="m 82.474868,142.17565 c 0,0 -5.86011,-34.14346 -1.87087,-50.513943 0.8992,-3.69002 2.78783,-7.37698 5.61266,-9.91571 3.38631,-3.04334 8.07665,-4.50211 12.53493,-5.42557 9.892802,-2.04912 20.549822,-2.61479 30.308372,0 4.07988,1.0932 8.14029,3.20331 10.97377,6.33571 2.07121,2.28971 3.2352,5.41008 3.80624,8.44431 3.14146,16.692123 -2.61924,50.888113 -2.61924,50.888113 z"
       id="path6312" /><circle
       style="fill:#ffd89f;fill-opacity:1;stroke:none;stroke-width:0.0966197"
       id="path588"
       cx="80.433548"
       cy="79.499008"
       r="72.396172" /><path
       style="fill:#245b3c;fill-opacity:1;stroke:none;stroke-width:0.1"
       d="m 80.200668,142.17565 c 0,0 -5.86011,-34.14346 -1.87087,-50.513943 0.8992,-3.69002 2.78783,-7.37698 5.61266,-9.91571 3.38631,-3.04334 8.07665,-4.50211 12.53493,-5.42557 9.892802,-2.04912 20.549822,-2.61479 30.308372,0 4.07988,1.0932 8.14029,3.20331 10.97377,6.33571 2.07121,2.28971 3.2352,5.41008 3.80624,8.44431 3.14146,16.692123 -2.61924,50.888113 -2.61924,50.888113 z"
       id="path1248" /><path
       style="fill:#245b3c;fill-opacity:1;stroke:none;stroke-width:0.13789"
       d="m 27.364906,31.564074 c 0,0 -3.94665,25.216523 -1.28987,37.406673 1.63785,7.51496 5.67467,14.50732 10.31906,20.63814 3.08774,4.07597 11.35099,10.3191 11.35099,10.3191 0,0 7.48451,-18.24536 7.48133,-27.86151 -0.003,-6.94624 -1.79701,-14.19411 -5.4175,-20.1222 -5.26712,-8.62428 -22.44401,-20.380203 -22.44401,-20.380203 z"
       id="path589" /><path
       style="fill:#245b3c;fill-opacity:1;stroke:none;stroke-width:0.1"
       d="m 11.201886,67.986297 c 0,0 13.95558,6.48846 19.64431,11.5127 3.53432,3.12148 6.89854,6.83187 8.60608,11.22725 2.85626,7.3523 2.05798,23.573193 2.05798,23.573193 0,0 -14.84635,-0.61293 -20.39266,-4.86431 -6.64415,-5.09289 -10.34692,-13.864543 -11.9736896,-22.076473 -1.26189,-6.37 2.0579796,-19.37236 2.0579796,-19.37236 z"
       id="path590" /><path
       style="fill:#ff985e;fill-opacity:1;stroke:none;stroke-width:0.1"
       d="m 86.972788,142.17565 c 0,0 -5.86011,-34.14346 -1.87087,-50.513943 0.8992,-3.69002 2.78783,-7.37698 5.61266,-9.91571 3.38631,-3.04334 8.07665,-4.50211 12.534932,-5.42557 9.8928,-2.04912 20.54982,-2.61479 30.30837,0 4.07988,1.0932 8.14029,3.20331 10.97377,6.33571 2.07121,2.28971 3.2352,5.41008 3.80624,8.44431 3.14146,16.692123 -2.61924,50.888113 -2.61924,50.888113 z"
       id="path591" /><path
       style="fill:#ffd89f;fill-opacity:1;stroke:none;stroke-width:0.1"
       d="m 111.29432,97.835627 h 17.21217 v -11.03823 h -17.96052 v 11.03823 z"
       id="path592" /><path
       style="fill:#ffb435;fill-opacity:1;stroke:none;stroke-width:0.1"
       d="m 22.801376,90.913337 c 16.91403,-6.95238 36.24696,-10.11865 64.545612,0.74837 l -7.67064,19.644313 4.67722,35.35976 H 25.607706 l 4.86432,-34.05015 z"
       id="path593" /><path
       style="fill:#681131;fill-opacity:1;stroke:none;stroke-width:0.1"
       d="m 67.194896,63.224217 c 0,0 -0.83406,-2.68772 -1.92437,-3.39968 -0.94474,-0.61691 -2.31215,0.0568 -3.36762,-0.34208 -1.2197,-0.46091 -1.88911,-2.09711 -3.1805,-2.27716 -1.31232,-0.18298 -2.42073,1.44434 -3.74177,1.34172 -0.77906,-0.0605 -1.53017,-0.54634 -2.05798,-1.12255 -0.73679,-0.80435 -0.63692,-2.14024 -1.30961,-2.99892 -0.72656,-0.92746 -1.96062,-1.32849 -2.80633,-2.14876 -0.99179,-0.96196 -1.39813,-2.56614 -2.61924,-3.2126 -1.05118,-0.55649 -2.37401,-0.16629 -3.5547,-0.30997 -1.20128,-0.1462 -2.45215,-0.98208 -3.58677,-0.56127 -0.87104,0.32305 -1.13095,1.48462 -1.80669,2.12216 -0.57831,0.54561 -1.60134,0.70239 -1.90298,1.43801 -0.35458,0.86473 0.48878,1.84327 0.40626,2.77423 -0.11029,1.2443 -1.29675,2.31035 -1.18673,3.55468 0.0824,0.93165 1.01917,1.58636 1.34173,2.46426 0.43941,1.19593 -0.0402,2.76719 0.78045,3.74179 0.72695,0.86329 2.1206,0.7792 3.1484,1.24541 0.76637,0.34763 1.42171,0.98074 2.24507,1.15462 1.03908,0.21944 2.13268,-0.0141 3.1805,-0.18709 0.61627,-0.10174 1.24504,-0.77034 1.80671,-0.49707 0.92063,0.44791 1.07203,1.81555 1.18671,2.83292 0.16308,1.44672 -1.08066,2.8856 -0.74835,4.30305 0.26477,1.1294 2.05798,2.80633 2.05798,2.80633 z"
       id="path596" /><path
       style="fill:#ffb435;fill-opacity:1;stroke:none;stroke-width:0.1"
       d="m 51.238876,79.500937 5.05137,-7.10936 10.85115,-5.23848 0.0535,-3.92888 c 0,0 -8.21839,-1.27528 -11.40722,0.81354 -3.74783,2.45497 -6.23261,11.9085 -6.23261,11.9085 z"
       id="path595" /><path
       style="fill:#f77237;fill-opacity:1;stroke:none;stroke-width:0.1"
       d="m 50.116326,88.107007 c 0,0 1.69838,1.71433 2.80633,2.05798 1.90697,0.59147 4.17587,0.6536 5.98684,-0.18708 0.76101,-0.35327 1.6838,-1.8709 1.6838,-1.8709 l -0.37417,-7.29644 c 0,0 2.58355,0.31608 3.55468,-0.37417 1.91007,-1.35761 2.99341,-6.36104 2.99341,-6.36104 l 0.70491,-7.05455 -2.01451,0.50646 -7.48356,-0.74835 c 0,0 -0.99983,0.96838 -1.25481,1.59494 -0.50768,1.24751 -0.429,4.01772 -0.429,4.01772 l -2.05795,-0.93546 c -1.2358,0.1854 -2.0975,0.99429 -2.80633,2.05798 l -0.18709,5.98684 z"
       id="path594" /><path
       style="fill:#f77237;fill-opacity:1;stroke:none;stroke-width:0.1"
       d="m 24.630736,96.089087 c -5.72368,6.149463 -11.28912,12.457163 -15.5381796,20.081243 0,0 -1.66177,6.04835 0,8.2319 3.9683696,5.2144 18.9473096,5.23846 18.9473096,5.23846 l 29.37293,4.67723 c 0,0 1.07878,0.19937 1.2161,-0.18709 0.59126,-1.66396 -3.55377,-3.92885 -3.55377,-3.92885 0,0 3.46639,2.10875 5.144,1.4967 0.42247,-0.15413 0.82703,-0.67976 0.74835,-1.12253 -0.35135,-1.97726 -4.86431,-3.55467 -4.86431,-3.55467 0,0 2.88694,0.85623 4.30305,0.56126 0.35599,-0.0741 0.891,-0.20035 0.93543,-0.56126 0.24785,-2.01327 -4.30302,-4.30305 -4.30302,-4.30305 0,0 3.61817,2.08225 5.05137,1.12252 0.37647,-0.2521 0.59595,-1.06846 0.23265,-1.3392 -5.71082,-4.25585 -21.56354,-6.61458 -21.56354,-6.61458 l -10.45104,-2.18281 0.16396,-1.08873 z"
       id="path597" /><path
       style="fill:#f77237;fill-opacity:1;stroke:none;stroke-width:0.529167;stroke-linecap:round;stroke-linejoin:round;stroke-dasharray:none;paint-order:markers fill stroke"
       d="m 79.988898,110.5056 13.29,3.46335 c 0,0 7.467422,1.02785 10.980202,0 1.25621,-0.36757 2.53523,-1.05975 3.3073,-2.11667 5.76056,-7.88588 7.54062,-28.310423 7.54062,-28.310423 l 5.09323,-3.63802 c 0,0 3.07681,-2.9383 2.8112,-4.7625 -0.0607,-0.41684 -0.50484,-0.85435 -0.92604,-0.85989 -1.02824,-0.0135 -2.31511,2.03898 -2.31511,2.03898 0,0 2.29579,-3.401 1.91823,-5.21398 -0.0715,-0.34351 -0.37701,-0.74648 -0.7276,-0.76068 -1.06113,-0.043 -2.38125,2.11667 -2.38125,2.11667 0,0 1.49344,-2.45801 1.55442,-3.83646 0.0183,-0.41458 0.0163,-1.02416 -0.3638,-1.19063 -0.60523,-0.26504 -1.28612,0.42777 -1.78594,0.8599 -0.80494,0.69591 -1.78593,2.64583 -1.78593,2.64583 0,0 0.68637,-1.30437 0.82682,-2.01744 0.12144,-0.61654 0.42166,-1.41925 0,-1.88516 -0.22303,-0.24644 -0.68271,-0.22044 -0.99219,-0.0992 -1.90521,0.74636 -4.06797,4.59714 -4.06797,4.59714 l -3.14192,1.19062 c 0,0 0.12335,-1.63331 0.0661,-2.4474 -0.0557,-0.79187 0.30258,-1.97278 -0.39687,-2.34817 -0.57402,-0.30807 -1.2985,0.36154 -1.78594,0.79375 -2.38881,2.11814 -4.9095,8.22394 -4.9095,8.22394 l -7.480962,20.1849 -7.6544,-3.71716 z"
       id="path1572" /><path
       style="fill:#f96501;fill-opacity:1;stroke:none;stroke-width:0.529167;stroke-linecap:round;stroke-linejoin:round;stroke-dasharray:none;paint-order:markers fill stroke"
       d="m 8.3025864,141.55189 -0.0212,10.39159 144.5965436,-0.53599 0.13055,-9.8556 z"
       id="path2363" /><path
       style="fill:#ffffff;stroke:none;stroke-width:0.529167;stroke-linecap:round;stroke-linejoin:round;stroke-dasharray:none;paint-order:markers fill stroke"
       d="m 59.082026,135.76477 c 1.13659,6.07547 6.74135,11.65575 12.63332,13.12918 6.023202,1.50625 12.547292,1.50306 17.065632,-0.33073 5.26216,-2.13568 10.12025,-8.14537 11.245582,-12.79845"
       id="path2349" /><path
       style="color:#000000;fill:#000000;stroke-linecap:round;stroke-linejoin:round;-inkscape-stroke:none;paint-order:markers fill stroke"
       d="m 79.554278,129.97572 c -5.16581,0 -11.430082,0.62084 -14.835542,1.63281 -1.70274,0.50599 -3.08836,1.10778 -4.06641,1.79493 -0.97805,0.68715 -1.57031,1.48295 -1.57031,2.36132 0,0.87838 0.59226,1.67223 1.57031,2.35938 0.97805,0.68715 2.36367,1.28893 4.06641,1.79492 3.40546,1.01198 9.669732,1.63281 14.835542,1.63281 5.16582,0 11.43008,-0.62083 14.83555,-1.63281 1.70273,-0.50599 3.0864,-1.10777 4.06445,-1.79492 0.97805,-0.68715 1.572272,-1.481 1.572272,-2.35938 0,-0.87837 -0.594222,-1.67417 -1.572272,-2.36132 -0.97805,-0.68715 -2.36172,-1.28894 -4.06445,-1.79493 -3.40547,-1.01197 -9.66973,-1.63281 -14.83555,-1.63281 z m 0,0.50196 c 5.12561,0 9.76471,0.61915 13.10352,1.61132 1.66941,0.49609 3.01403,1.08679 3.92187,1.72461 0.90785,0.63783 1.35742,1.30044 1.35743,1.95117 -1e-5,0.65074 -0.44958,1.3114 -1.35743,1.94922 -0.90784,0.63783 -2.25246,1.23048 -3.92187,1.72657 -3.33881,0.99217 -7.97791,1.61132 -13.10352,1.61132 -5.12561,0 -9.766652,-0.61915 -13.105472,-1.61132 -1.6694,-0.49609 -3.01403,-1.08874 -3.92187,-1.72657 -0.90784,-0.63782 -1.35742,-1.29848 -1.35742,-1.94922 0,-0.65073 0.44958,-1.31334 1.35742,-1.95117 0.90784,-0.63782 2.25247,-1.22852 3.92187,-1.72461 3.33882,-0.99217 7.979862,-1.61132 13.105472,-1.61132 z"
       id="path1682" /><path
       style="fill:#245b3c;fill-opacity:1;stroke:none;stroke-width:0.529167;stroke-linecap:round;stroke-linejoin:round;stroke-dasharray:none;paint-order:markers fill stroke"
       d="m 99.912688,119.72364 c -0.52261,1.0452 -0.16915,2.34946 0,3.50573 0.286442,1.95809 1.378382,3.73549 1.700582,5.68801 0.58916,3.57029 -0.90505,7.4722 0.39688,10.84845 0.85015,2.20467 2.48573,4.29972 4.56406,5.42396 3.06693,1.65901 7.00244,2.10377 10.38489,1.25677 2.01205,-0.50384 4.13901,-1.73046 5.09612,-3.5706 1.1397,-2.1912 0.68,-5.03602 -0.003,-7.40961 -0.4821,-1.67569 -1.52156,-3.22341 -2.77813,-4.4323 -1.85053,-1.78033 -4.55592,-2.39396 -6.68072,-3.83593 -3.28521,-2.22947 -6.55987,-4.56078 -9.32657,-7.40833 -0.47976,-0.49378 -0.55605,-1.55589 -1.23755,-1.65361 -0.87301,-0.12518 -1.72225,0.79863 -2.116672,1.58746 z"
       id="path2353" /><path
       style="fill:#ffd89f;fill-opacity:1;stroke:none;stroke-width:0.529167;stroke-linecap:round;stroke-linejoin:round;stroke-dasharray:none;paint-order:markers fill stroke"
       d="m 101.50019,118.6653 c -0.37972,0.91665 -0.18533,2.00184 0,2.97656 0.55783,2.93379 2.66377,5.41349 3.28808,8.33385 0.6091,2.84922 -0.66343,6.01796 0.39688,8.73178 0.8599,2.20089 2.49338,4.28571 4.56406,5.42396 2.749,1.51112 6.29104,2.04802 9.32656,1.25677 1.7886,-0.46622 3.5382,-1.71252 4.43466,-3.32894 1.24154,-2.23862 1.25963,-5.16298 0.65857,-7.65127 -0.40941,-1.69492 -1.52156,-3.22341 -2.77813,-4.4323 -1.85053,-1.78033 -4.55592,-2.39396 -6.68072,-3.83593 -3.28521,-2.22947 -5.70696,-5.77689 -9.32657,-7.40833 -1.03525,-0.46661 -2.27104,-0.93611 -3.35422,-0.59527 -0.23794,0.0749 -0.43371,0.29867 -0.52917,0.52912 z"
       id="path2351" /><path
       style="fill:#000000;fill-opacity:1;stroke:#000000;stroke-width:0.529167;stroke-linecap:round;stroke-linejoin:round;stroke-dasharray:none;paint-order:markers fill stroke"
       d="m 109.48463,128.38874 c -1.60941,2.09924 0.87883,5.638 2.84427,7.40833 1.95916,1.76468 5.67428,3.80808 7.63984,2.05052 2.13622,-1.91016 0.78322,-6.52122 -1.28984,-8.49974 -2.22911,-2.12745 -7.31946,-3.40452 -9.19427,-0.95911 z"
       id="path2355" /><path
       style="fill:#681131;fill-opacity:1;stroke:none;stroke-width:0.529167;stroke-linecap:round;stroke-linejoin:round;stroke-dasharray:none;paint-order:markers fill stroke"
       d="m 133.39328,147.25636 c 4.63435,-0.88876 9.24773,-3.30545 12.41388,-6.8044 3.69287,-4.08103 5.80139,-9.73268 6.45456,-15.19761 0.22705,-1.89965 0.77804,-4.81176 -0.93544,-5.66278 -1.54209,-0.7659 -3.16642,1.41066 -4.5694,2.4088 -3.32075,2.36251 -5.57719,6.0349 -8.93253,8.34803 -5.01872,3.45985 -12.68129,3.23278 -16.4223,8.04558 -1.50505,1.93624 -2.93368,5.20677 -1.50667,7.20122 2.63784,3.68675 9.04579,2.51497 13.4979,1.66116 z"
       id="path2361" /><path
       style="fill:none;stroke:#000000;stroke-width:0.529167;stroke-linecap:round;stroke-linejoin:round;stroke-dasharray:none;paint-order:markers fill stroke"
       d="m 128.69358,136.23557 c 0,0 0.20453,-1.15371 0.0702,-1.70718 -0.12269,-0.50551 -0.77174,-1.35638 -0.77174,-1.35638"
       id="path2359" /><path
       style="fill:#ef481b;fill-opacity:1;stroke:none;stroke-width:0.529167;stroke-linecap:round;stroke-linejoin:round;stroke-dasharray:none;paint-order:markers fill stroke"
       d="m 128.69358,149.93982 c 5.75855,-0.0977 8.40441,-4.00544 8.74723,-7.92491 0.25035,-2.86225 -0.99506,-5.66093 -5.28609,-6.80834 -1.2143,-0.3247 -2.48487,0.45482 -3.74177,0.46774 -1.20373,0.0124 -2.51592,-0.91391 -3.59194,-0.37418 -2.347,1.17725 -4.3583,4.16262 -4.03063,6.7678 0.464,3.68917 2.64328,7.96117 7.9032,7.87189 z"
       id="path2357" /><path
       style="fill:#681131;fill-opacity:1;stroke:none;stroke-width:0.529167;stroke-linecap:round;stroke-linejoin:round;stroke-dasharray:none;paint-order:markers fill stroke"
       d="m 117.09409,97.885607 1.85934,-3.8853 1.47614,3.83532 z"
       id="path2365" /><path
       style="fill:#ffffff;stroke:none;stroke-width:0.529167;stroke-linecap:round;stroke-linejoin:round;stroke-dasharray:none;paint-order:markers fill stroke"
       d="m 62.289566,73.289257 c 0,0 -1.06093,-1.77488 -1.9513,-2.16136 -1.16314,-0.50487 -3.80339,0.0661 -3.80339,0.0661 0,0 1.6371,2.12924 2.84428,2.49208 0.93767,0.28184 2.91041,-0.39687 2.91041,-0.39687 z"
       id="path2367" /><path
       id="circle10059"
       style="fill:#000000;fill-opacity:1;stroke:none;stroke-width:0.529167;stroke-linecap:round;stroke-linejoin:round;paint-order:markers fill stroke"
       d="m 58.940936,70.919377 c -1.15792,0.005 -2.40606,0.2744 -2.40606,0.2744 0,0 1.63709,2.12952 2.84427,2.49236 0.18637,0.056 0.41382,0.0742 0.65836,0.0672 a 2.3853805,2.3853805 0 0 0 0.66869,-1.65468 2.3853805,2.3853805 0 0 0 -0.16019,-0.85835 c -0.06987,-0.0446 -0.13933,-0.0824 -0.20774,-0.11213 -0.36348,-0.15778 -0.87101,-0.21087 -1.39733,-0.20878 z" /><path
       style="fill:#ffffff;stroke:none;stroke-width:0.529167;stroke-linecap:round;stroke-linejoin:round;stroke-dasharray:none;paint-order:markers fill stroke"
       d="m 64.406236,73.785347 c 0,0 1.49934,-2.03039 2.62808,-2.38302 0.97153,-0.30352 3.02739,0.39865 3.02739,0.39865 0,0 -1.47663,1.82612 -2.53275,2.18083 -0.98869,0.33206 -3.12272,-0.19646 -3.12272,-0.19646 z"
       id="path2369" /><path
       style="fill:none;stroke:#000000;stroke-width:0.529167;stroke-linecap:round;stroke-linejoin:round;stroke-dasharray:none;paint-order:markers fill stroke"
       d="m 63.282706,73.443937 0.85897,1.49672 -0.57835,0.51448"
       id="path2371" /><path
       style="fill:none;stroke:#000000;stroke-width:0.529167;stroke-linecap:round;stroke-linejoin:round;stroke-dasharray:none;paint-order:markers fill stroke"
       d="m 61.365036,76.530907 c 0,0 0.44555,0.61067 0.77176,0.77174 0.26572,0.1312 0.88133,0.11691 0.88133,0.11691"
       id="path2373" /><path
       style="fill:none;stroke:#000000;stroke-width:0.529167;stroke-linecap:round;stroke-linejoin:round;stroke-dasharray:none;paint-order:markers fill stroke"
       d="m 56.352986,78.365947 c 0,0 1.41787,1.51577 2.3151,2.00091 0.47303,0.25577 1.55104,0.44371 1.55104,0.44371"
       id="path2375" /><path
       style="fill:none;stroke:#000000;stroke-width:0.529167;stroke-linecap:round;stroke-linejoin:round;stroke-dasharray:none;paint-order:markers fill stroke"
       d="m 56.945066,119.81854 3.59164,-4.98144 -2.16628,-1.53789 4.00902,2.84427"
       id="path2931" /><path
       style="fill:none;stroke:#000000;stroke-width:0.529167;stroke-linecap:round;stroke-linejoin:round;stroke-dasharray:none;paint-order:markers fill stroke"
       d="m 64.592316,107.30698 -4.91106,6.77029"
       id="path2933" /><path
       style="fill:none;stroke:#000000;stroke-width:0.529167;stroke-linecap:round;stroke-linejoin:round;stroke-dasharray:none;paint-order:markers fill stroke"
       d="m 66.089026,108.42951 -4.91106,6.77029"
       id="path2935" /><path
       style="fill:none;stroke:#000000;stroke-width:0.529167;stroke-linecap:round;stroke-linejoin:round;stroke-dasharray:none;paint-order:markers fill stroke"
       d="m 67.305106,109.34157 -4.91106,6.77029"
       id="path2937" /><path
       style="fill:none;stroke:#000000;stroke-width:0.529167;stroke-linecap:round;stroke-linejoin:round;stroke-dasharray:none;paint-order:markers fill stroke"
       d="m 63.259316,106.58201 -4.91106,6.77029"
       id="path2939" /><path
       style="fill:none;stroke:#000000;stroke-width:0.529167;stroke-linecap:round;stroke-linejoin:round;stroke-dasharray:none;paint-order:markers fill stroke"
       d="m 16.908106,111.21246 13.39995,2.4919"
       id="path3500" /><path
       style="fill:none;stroke:#000000;stroke-width:0.529167;stroke-linecap:round;stroke-linejoin:round;stroke-dasharray:none;paint-order:markers fill stroke"
       d="m 53.390386,121.78297 3.64824,0.93546"
       id="path3502" /><path
       style="fill:none;stroke:#000000;stroke-width:0.529167;stroke-linecap:round;stroke-linejoin:round;stroke-dasharray:none;paint-order:markers fill stroke"
       d="m 53.125806,126.00749 2.97736,1.01399"
       id="path3504" /><path
       style="fill:none;stroke:#000000;stroke-width:0.529167;stroke-linecap:round;stroke-linejoin:round;stroke-dasharray:none;paint-order:markers fill stroke"
       d="m 53.125806,129.97571 1.94932,0.22627"
       id="path3506" /><path
       style="fill:none;stroke:#000000;stroke-width:0.529167;stroke-linecap:round;stroke-linejoin:round;stroke-dasharray:none;paint-order:markers fill stroke"
       d="m 90.433958,107.56423 3.88205,-10.430163"
       id="path3508" /><path
       style="fill:none;stroke:#000000;stroke-width:0.529167;stroke-linecap:round;stroke-linejoin:round;stroke-dasharray:none;paint-order:markers fill stroke"
       d="m 108.76864,81.465357 c 0,0 1.22551,-2.57464 2.3386,-3.36759 0.84422,-0.6014 2.99344,-0.8419 2.99344,-0.8419"
       id="path3510" /><path
       style="fill:none;stroke:#000000;stroke-width:0.529167;stroke-linecap:round;stroke-linejoin:round;stroke-dasharray:none;paint-order:markers fill stroke"
       d="m 117.46827,78.425167 1.68378,-1.07575 0.61825,-1.02899"
       id="path3512" /><path
       style="fill:none;stroke:#000000;stroke-width:0.529167;stroke-linecap:round;stroke-linejoin:round;stroke-dasharray:none;paint-order:markers fill stroke"
       d="m 116.0651,75.151127 1.13859,-1.0056 1.37599,-1.68309"
       id="path3514" /><path
       style="fill:none;stroke:#000000;stroke-width:0.529167;stroke-linecap:round;stroke-linejoin:round;stroke-dasharray:none;paint-order:markers fill stroke"
       d="m 113.516,73.467317 1.73059,-1.09913 0.95184,-1.42711"
       id="path3516" /><path
       style="fill:none;stroke:#000000;stroke-width:0.529167;stroke-linecap:round;stroke-linejoin:round;stroke-dasharray:none;paint-order:markers fill stroke"
       d="m 105.1204,73.981827 3.70277,-1.25478"
       id="path3518" /><ellipse
       style="fill:#ffd89f;fill-opacity:1;stroke:none;stroke-width:0.560708;stroke-linecap:round;stroke-linejoin:round;paint-order:markers fill stroke"
       id="path9280"
       cx="79.62957"
       cy="135.18953"
       rx="18.942728"
       ry="6.0780311" /><path
       style="fill:#f95c39;fill-opacity:1;stroke:none;stroke-width:0.529167;stroke-linecap:round;stroke-linejoin:round;stroke-dasharray:none;paint-order:markers fill stroke"
       d="m 81.173068,131.53498 c -0.20517,0.43934 -0.70722,0.7184 -1.16932,0.86527 -2.06578,0.65658 -4.59139,0.88474 -6.501322,-0.14031 -1.28803,-0.69128 -2.20618,-2.16996 -2.50232,-3.60146 -0.3351,-1.61986 0.0101,-3.5259 0.98221,-4.86431 0.73639,-1.01392 2.032802,-1.67552 3.274062,-1.84751 0.85025,-0.11782 1.93469,-0.0359 2.50232,0.60804 0.87155,0.98867 0.006,2.68599 0.44432,3.92888 0.27957,0.79242 0.80774,1.48729 1.35128,2.12812 0.44118,0.52015 1.22821,0.75001 1.52521,1.36401 0.22673,0.46873 0.31388,1.08749 0.0936,1.55927 z"
       id="path3520" /><path
       style="fill:#ff985e;fill-opacity:1;stroke:none;stroke-width:0.36096;stroke-linecap:round;stroke-linejoin:round;stroke-dasharray:none;paint-order:markers fill stroke"
       d="m 79.027898,130.23057 c -0.13995,0.29968 -0.48242,0.49003 -0.79763,0.59022 -1.40912,0.44787 -3.13192,0.60351 -4.43475,-0.0957 -0.878592,-0.47153 -1.504892,-1.48019 -1.706902,-2.45666 -0.22858,-1.10495 0.007,-2.40512 0.66999,-3.31809 0.50232,-0.69163 1.386642,-1.14292 2.233342,-1.26024 0.57999,-0.0803 1.31971,-0.0245 1.7069,0.41476 0.59452,0.6744 0.004,1.83219 0.30309,2.68001 0.19071,0.54053 0.55098,1.01452 0.92175,1.45166 0.30095,0.3548 0.8378,0.5116 1.04039,0.93042 0.15466,0.31974 0.21411,0.74181 0.0638,1.06363 z"
       id="path3522" /><ellipse
       style="fill:#000000;stroke:none;stroke-width:0.529167;stroke-linecap:round;stroke-linejoin:round;stroke-dasharray:none;paint-order:markers fill stroke"
       id="path3524"
       cx="32.82579"
       cy="151.72557"
       rx="4.6772165"
       ry="2.4321525"
       transform="rotate(-15)" /><path
       style="fill:#000000;stroke:#ffffff;stroke-width:0.529167;stroke-linecap:round;stroke-linejoin:round;stroke-dasharray:none;paint-order:markers fill stroke"
       d="m 69.267956,136.95462 c 0,0 1.59937,-0.6573 2.44739,-0.76067 0.93179,-0.11358 2.811202,0.16536 2.811202,0.16536 0,0 -1.878072,0.0901 -2.811202,0.19844 -0.82094,0.0953 -2.44739,0.39687 -2.44739,0.39687 z"
       id="path3528" /><ellipse
       style="fill:#000000;stroke:none;stroke-width:0.529167;stroke-linecap:round;stroke-linejoin:round;stroke-dasharray:none;paint-order:markers fill stroke"
       id="ellipse3530"
       cx="120.32285"
       cy="101.3421"
       rx="4.6772165"
       ry="2.4321525"
       transform="rotate(15)" /><path
       style="fill:#000000;stroke:#ffffff;stroke-width:0.529167;stroke-linecap:round;stroke-linejoin:round;stroke-dasharray:none;paint-order:markers fill stroke"
       d="m 89.066358,127.21938 c 0,0 1.71374,0.23045 2.49984,0.56494 0.86374,0.36753 2.35189,1.5488 2.35189,1.5488 0,0 -1.67151,-0.861 -2.53379,-1.23374 -0.75861,-0.32794 -2.31794,-0.88 -2.31794,-0.88 z"
       id="path3532" /><path
       style="fill:none;stroke:#000000;stroke-width:0.529167;stroke-linecap:round;stroke-linejoin:round;stroke-dasharray:none;paint-order:markers fill stroke"
       d="m 53.508706,74.612177 c 0,0 -0.0434,-0.72885 0.1323,-1.02526 0.1147,-0.19347 0.5457,-0.39688 0.5457,-0.39688"
       id="path3588" /><path
       style="fill:#387e54;fill-opacity:1;stroke:none;stroke-width:0.529167;stroke-linecap:round;stroke-linejoin:round;paint-order:markers fill stroke"
       d="m 60.933576,134.60645 2.4474,2.05052 c 0.70327,-1.41806 2.58688,-2.49889 4.49792,-3.57188 l -4.49792,-3.50573 c -0.068,1.78252 0.0153,3.58666 -2.4474,5.02709 z"
       id="path859" /><path
       style="fill:#245b3c;fill-opacity:1;stroke:none;stroke-width:0.529167;stroke-linecap:round;stroke-linejoin:round;paint-order:markers fill stroke"
       d="m 66.754416,133.68041 c 1.20732,0.26241 2.59464,0.67584 3.70416,0.13229 0.60996,-0.29882 1.19225,-0.97442 1.19063,-1.65365 -0.001,-0.59979 -0.78812,-0.91974 -1.05833,-1.45521 -0.19792,-0.39221 -0.1771,-0.87638 -0.39688,-1.25677 -0.17956,-0.31078 -0.60201,-0.45752 -0.7276,-0.79375 -0.28556,-0.7645 0.54659,-1.78774 0.0661,-2.44739 -0.55457,-0.76135 -1.79942,-1.02709 -2.71198,-0.79375 -0.24167,0.0618 -0.32943,0.37972 -0.52916,0.52916 -0.2212,0.16551 -0.72761,0.39688 -0.72761,0.39688 0,0 -0.21199,-0.48391 -0.42994,-0.59536 -0.4417,-0.22585 -1.02458,-0.17629 -1.48829,1e-5 -0.49634,0.18871 -1.03529,0.55056 -1.19062,1.05833 -0.28626,0.93582 0.0992,2.09408 0.7276,2.84427 0.34216,0.40845 1.14976,0.22487 1.45521,0.66146 0.49439,0.70666 -0.30799,1.8816 0.19844,2.57969 0.40635,0.56013 1.24205,0.64681 1.91827,0.79379 z"
       id="path957" /><path
       style="fill:#387e54;fill-opacity:1;stroke:none;stroke-width:0.529167;stroke-linecap:round;stroke-linejoin:round;paint-order:markers fill stroke"
       d="m 89.077438,139.85694 2.49315,-1.99464 c -1.2514,-0.96927 -1.93928,-3.02913 -2.61406,-5.11433 l -4.32438,3.71769 c 1.73405,0.41841 3.51916,0.69276 4.44529,3.39128 z"
       id="path1013" /><path
       style="fill:#245b3c;fill-opacity:1;stroke:none;stroke-width:0.529167;stroke-linecap:round;stroke-linejoin:round;paint-order:markers fill stroke"
       d="m 89.318248,133.96782 c 0.49549,-1.1318 1.17456,-2.41026 0.86064,-3.60522 -0.17258,-0.65693 -0.71999,-1.36109 -1.38619,-1.49354 -0.58819,-0.11737 -1.05717,0.59113 -1.63543,0.75036 -0.42356,0.11664 -0.8941,6.8e-4 -1.31038,0.14108 -0.3401,0.1147 -0.56732,0.49989 -0.92172,0.55666 -0.80582,0.12908 -1.64473,-0.88862 -2.38622,-0.54775 -0.85582,0.39343 -1.36198,1.56136 -1.31331,2.50202 0.0129,0.24911 0.30725,0.39788 0.41434,0.62318 0.1186,0.24951 0.24549,0.79162 0.24549,0.79162 0,0 -0.51622,0.11233 -0.66849,0.304 -0.30857,0.38844 -0.37501,0.96964 -0.29368,1.45902 0.0871,0.52382 0.33544,1.12358 0.80257,1.37606 0.86093,0.46529 2.07248,0.31598 2.93193,-0.15203 0.46793,-0.25483 0.44733,-1.08278 0.93561,-1.29607 0.79032,-0.34522 1.78382,0.67323 2.56812,0.31452 0.6293,-0.28783 0.87919,-1.08999 1.15672,-1.72391 z"
       id="path1015" /><path
       id="circle10187"
       style="fill:#000000;fill-opacity:1;stroke:none;stroke-width:0.529167;stroke-linecap:round;stroke-linejoin:round;paint-order:markers fill stroke"
       d="m 67.155936,71.370517 c -0.0421,0.009 -0.0826,0.0199 -0.12144,0.032 -1.12874,0.35263 -2.62826,2.3828 -2.62826,2.3828 0,0 1.86414,0.46185 2.91506,0.25115 a 2.3853805,2.3853805 0 0 0 0.33022,-1.21027 2.3853805,2.3853805 0 0 0 -0.49558,-1.45572 z" /><path
       style="fill:#681131;fill-opacity:1;stroke-width:0.529167;stroke-linecap:round;stroke-linejoin:round;paint-order:markers fill stroke"
       d="m 58.056066,66.650557 c 0.89337,0.28602 1.99514,1.85611 1.62131,2.89796 -0.33343,0.92926 -2.27792,0.21394 -2.75955,1.07576 -0.51022,0.91296 0.86661,2.08668 0.56126,3.08697 -0.24786,0.81195 -1.6006,0.99377 -1.77733,1.82411 -0.13144,0.61754 0.65481,1.77734 0.65481,1.77734 0,0 -2.28178,-1.30133 -2.38537,-2.43215 -0.0789,-0.86122 1.42428,-1.28708 1.44991,-2.15152 0.0236,-0.79646 -1.30758,-1.26644 -1.21608,-2.05797 0.21309,-1.84349 3.85104,-4.0205 3.85104,-4.0205 z"
       id="path1017" /><path
       style="fill:#ef481b;fill-opacity:1;stroke:none;stroke-width:1.13301;stroke-linecap:round;stroke-linejoin:round;paint-order:markers fill stroke"
       d="m 93.590828,67.160017 c 0,0 -7.78442,-5.62845 -7.68978,-9.77242 0.0353,-1.55192 1.50666,-3.30835 3.04387,-3.52448 1.64272,-0.23096 4.16529,2.72346 4.16529,2.72346 0,0 2.61938,-3.18686 4.32552,-2.88368 1.69312,0.30088 3.049782,2.44567 3.043852,4.16532 -0.0128,3.8556 -6.888752,9.2918 -6.888752,9.2918 z"
       id="path2563" /><path
       style="fill:#ef481b;fill-opacity:1;stroke:none;stroke-width:0.604644;stroke-linecap:round;stroke-linejoin:round;paint-order:markers fill stroke"
       d="m 81.282698,73.893997 c 0,0 -4.15425,-3.00369 -4.10374,-5.21516 0.0188,-0.82821 0.80404,-1.76555 1.62439,-1.88089 0.87666,-0.12325 2.22286,1.45341 2.22286,1.45341 0,0 1.39786,-1.7007 2.30837,-1.53891 0.90355,0.16057 1.62755,1.30516 1.62438,2.22287 -0.007,2.05759 -3.67626,4.95868 -3.67626,4.95868 z"
       id="path2565" /><path
       style="fill:#ffffff;fill-opacity:1;stroke:none;stroke-width:0.529167;stroke-linecap:round;stroke-linejoin:round;paint-order:markers fill stroke"
       d="m 13.485416,88.518387 c 0,0 -0.79251,2.07869 -0.37411,2.99288 0.22454,0.49061 0.80988,0.95104 1.3468,0.89787 0.6669,-0.066 1.42162,-1.42162 1.42162,-1.42162 0,0 0.51608,0.99556 0.97269,1.27197 0.62787,0.38008 1.54977,0.7668 2.16983,0.37411 0.39363,-0.24929 0.39362,-0.88127 0.37411,-1.34679 -0.0301,-0.71747 -0.74822,-2.0202 -0.74822,-2.0202 0,0 1.21148,-0.2075 1.72091,-0.52375 0.49468,-0.30709 1.21862,-0.69013 1.19715,-1.27198 -0.0299,-0.81146 -1.03895,-1.35171 -1.79573,-1.64608 -0.69732,-0.27125 -2.24466,0 -2.24466,0 0,0 0.54368,-1.18605 0.44894,-1.79573 -0.15304,-0.98487 -0.57758,-2.46662 -1.57127,-2.54395 -0.91699,-0.0714 -1.54332,1.21056 -1.79573,2.09502 -0.18004,0.6309 0.29929,1.94537 0.29929,1.94537 0,0 -1.41225,-0.38911 -2.09501,-0.22446 -0.84059,0.20271 -2.05262,0.5649 -2.16984,1.42161 -0.10783,0.78803 0.84697,1.46707 1.57126,1.79573 0.3861,0.1752 1.27197,0 1.27197,0 z"
       id="path2621" /><path
       style="fill:#ffffff;fill-opacity:1;stroke:none;stroke-width:0.529167;stroke-linecap:round;stroke-linejoin:round;paint-order:markers fill stroke"
       d="m 44.993206,80.793107 c 0,0 0.94001,0.63041 1.4814,0.68779 0.39567,0.0419 0.92623,0.0545 1.16396,-0.26453 0.23762,-0.31889 0.0872,-0.82929 -0.0794,-1.19041 -0.21154,-0.45865 -1.08459,-1.05815 -1.08459,-1.05815 0,0 0.65633,-0.36577 0.7936,-0.68779 0.20428,-0.4792 0.27733,-1.18111 -0.0794,-1.56076 -0.26737,-0.28459 -0.78925,-0.24216 -1.16395,-0.13227 -0.2947,0.0864 -0.71425,0.58198 -0.71425,0.58198 0,0 -0.14448,-0.71295 -0.37035,-0.97878 -0.29673,-0.34923 -0.7484,-0.80882 -1.19041,-0.6878 -0.46839,0.12824 -0.67559,0.7857 -0.71425,1.26978 -0.0284,0.35596 0.37035,1.00523 0.37035,1.00523 0,0 -0.95753,-0.0612 -1.37558,0.13227 -0.3905,0.18069 -0.93619,0.46927 -0.92588,0.89942 0.01,0.39972 0.52899,0.64313 0.89942,0.79361 0.33535,0.13623 1.0846,0.0529 1.0846,0.0529 0,0 -0.32345,0.77789 -0.3439,1.19041 -0.0169,0.3403 -0.0767,0.78722 0.18518,1.00523 0.29816,0.24826 0.8118,0.16285 1.16395,0 0.42017,-0.1943 0.89942,-1.05813 0.89942,-1.05813 z"
       id="path2677" /><circle
       style="fill:#f77237;fill-opacity:1;stroke:none;stroke-width:0.529167;stroke-linecap:round;stroke-linejoin:round;paint-order:markers fill stroke"
       id="path2755"
       cx="16.090137"
       cy="87.601303"
       r="1.7988435" /><circle
       style="fill:#ff985e;fill-opacity:1;stroke:none;stroke-width:0.37353;stroke-linecap:round;stroke-linejoin:round;paint-order:markers fill stroke"
       id="circle2757"
       cx="44.7658"
       cy="78.871597"
       r="1.2697719" /><path
       style="fill:#ffffff;fill-opacity:1;stroke:none;stroke-width:0.744906;stroke-linecap:round;stroke-linejoin:round;paint-order:markers fill stroke"
       d="m 34.010066,73.464177 c 0,0 -0.10684,1.58968 0.2042,2.29008 0.22741,0.51185 0.58549,1.16751 1.14174,1.23279 0.55601,0.0652 1.07237,-0.47739 1.39535,-0.93467 0.41024,-0.5807 0.5266,-2.067 0.5266,-2.067 0,0 0.90787,0.54269 1.39706,0.48339 0.72797,-0.0883 1.63508,-0.49323 1.84684,-1.19535 0.15874,-0.52625 -0.2603,-1.13262 -0.658,-1.51206 -0.31275,-0.29846 -1.21221,-0.46112 -1.21221,-0.46112 0,0 0.76746,-0.67795 0.93255,-1.1404 0.2169,-0.60755 0.45928,-1.48166 6.4e-4,-1.93534 -0.48602,-0.48074 -1.43336,-0.27059 -2.05072,0.0229 -0.45394,0.21593 -0.9648,1.15903 -0.9648,1.15903 0,0 -0.59934,-1.21039 -1.12945,-1.58387 -0.49513,-0.34888 -1.23102,-0.81101 -1.74816,-0.49569 -0.48027,0.29353 -0.41171,1.09756 -0.33444,1.65507 0.07,0.50471 0.6989,1.35947 0.6989,1.35947 0,0 -1.17599,0.1532 -1.69327,0.41862 -0.42676,0.21891 -1.0137,0.46058 -1.09515,0.93328 -0.0928,0.53822 0.37286,1.10428 0.81925,1.41897 0.53261,0.37546 1.92301,0.35172 1.92301,0.35172 z"
       id="path2905" /><circle
       style="fill:#681131;fill-opacity:1;stroke:none;stroke-width:0.525816;stroke-linecap:round;stroke-linejoin:round;paint-order:markers fill stroke"
       id="circle2907"
       cx="80.30677"
       cy="4.5736027"
       r="1.7874516"
       transform="rotate(60)" /><path
       style="fill:#ffb435;fill-opacity:1"
       d="m 88.888828,29.596304 c -0.9199,0.61563 -0.98756,0.67767 -0.90137,0.82695 0.0539,0.0933 0.11402,0.0875 0.80874,-0.0776 8.80708,-2.09293 17.851702,1.04914 23.076652,8.016773 0.56699,0.75611 0.55399,0.73367 0.46412,0.80188 -0.26884,0.20417 -2.09601,1.66261 -2.13336,1.70281 -0.0593,0.0638 -0.0317,0.18677 0.0533,0.23767 0.12507,0.075 11.79988,3.17988 11.84859,3.15108 0.0268,-0.0158 0.0591,-0.0492 0.0719,-0.0743 0.0338,-0.0663 -0.3321,-12.202763 -0.36987,-12.268193 -0.0978,-0.16939 -0.0767,-0.18227 -1.35209,0.82578 -0.58324,0.460976 -1.07288,0.834796 -1.08809,0.830726 -0.0152,-0.004 -0.20757,-0.20591 -0.42735,-0.448576 -5.49689,-6.06737 -13.42969,-8.72538 -21.262552,-7.12434 -3.00264,0.61373 -6.4162,2.0118 -8.78882,3.59955 z"
       id="path2911" /><path
       style="fill:#245b3c;fill-opacity:1"
       d="m 91.934378,28.297834 c 9.621102,-4.53759 19.992612,-2.51521 26.918942,5.249016 0.2117,0.23726 0.41225,0.44156 0.44573,0.45395 0.0871,0.0323 0.12845,0.003 1.20728,-0.85424 0.53636,-0.426196 0.9794,-0.774286 0.98452,-0.773556 0.005,6e-4 0.0801,2.392536 0.16655,5.315106 0.0865,2.922567 0.16486,5.501407 0.17419,5.730747 0.009,0.22934 0.008,0.42199 -0.002,0.42812 -0.0557,0.0322 -11.09133,-2.96181 -11.05685,-2.99973 0.0212,-0.0238 0.48632,-0.3936 1.03327,-0.8223 1.16602,-0.91411 1.09962,-0.82118 0.84917,-1.18836 -4.97531,-7.293933 -14.077922,-10.802193 -23.283972,-8.973963 l -0.3338,0.0663 0.2189,-0.15155 c 0.38461,-0.26628 2.01284,-1.16558 2.6784,-1.47952 z"
       id="path2909" /><path
       style="fill:#f95c39;fill-opacity:1"
       d="m 131.29054,67.993097 c -4.81858,-0.40635 -6.86608,-1.98769 -7.18598,-5.54996 -0.39104,-4.35449 2.79068,-7.46846 6.65855,-6.51676 l 0.23072,0.0568 0.19432,-0.13077 c 0.59693,-0.4017 1.54221,-0.37615 2.13614,0.0577 0.0526,0.0385 0.0936,0.0179 0.25771,-0.12974 0.38898,-0.34973 1.02438,-0.43885 1.51823,-0.21294 l 0.20849,0.0954 0.34249,-0.1622 c 1.93254,-0.91524 4.20573,-0.32881 5.33582,1.3765 1.41468,2.13478 1.42081,6.0704 0.0127,8.14373 -1.46745,2.16068 -5.32599,3.34189 -9.70917,2.97226 z"
       id="path2990" /><path
       style="fill:#ff985e;fill-opacity:1"
       d="m 131.51133,66.748307 c 1.20194,-0.31138 1.25092,-0.77405 0.19691,-1.86014 -1.58494,-1.63319 -1.73755,-2.80811 -0.62548,-4.81553 0.86601,-1.56325 0.66503,-2.28963 -0.73991,-2.67418 -4.05495,-1.10991 -6.40239,4.97479 -3.1175,8.08077 0.7057,0.66726 1.71482,1.17094 2.60575,1.3006 0.15637,0.0228 0.32696,0.0488 0.37908,0.058 0.22284,0.039 1.01573,-0.0155 1.30115,-0.0895 z"
       id="path2992" /><path
       style="fill:#ff985e;fill-opacity:1"
       d="m 136.7136,66.476507 c 1.57494,-0.39007 3.23501,-1.952 3.74291,-3.52162 0.73727,-2.27849 -0.31391,-5.28814 -2.12752,-6.09132 -1.73483,-0.7683 -4.50663,0.82185 -3.85107,2.20931 0.0824,0.17448 0.2253,0.34275 0.64672,0.76178 1.5623,1.55344 1.68225,2.64415 0.49529,4.50385 -0.57105,0.89471 -0.66913,1.20822 -0.50995,1.63002 0.18934,0.5017 0.82105,0.70181 1.60362,0.50798 z"
       id="path2994" /><path
       style="fill:#245b3c;fill-opacity:1"
       d="m 66.204026,40.716797 c 0.0714,-0.0714 -0.64611,-0.70547 -0.99656,-0.88061 l -0.19034,-0.0951 0.16702,0.1448 c 0.19209,0.16653 0.55671,0.61586 0.66473,0.81916 l 0.0736,0.13852 0.13294,-0.0556 c 0.0731,-0.0306 0.14,-0.0626 0.14861,-0.0712 z"
       id="path2996" /><path
       id="path3000"
       style="fill:#6a1031;fill-opacity:1"
       d="m 63.989886,19.967604 c -0.23856,-0.003 -0.47941,0.009 -0.73174,0.0351 -0.69908,0.0721 -0.64799,0.0523 -0.89452,0.35398 -0.5395,0.66027 -1.92022,1.97895 -2.50734,2.39469 -0.19789,0.14013 -0.20872,0.0933 0.10645,0.47284 0.14719,0.17722 0.38196,0.47035 0.52142,0.65112 l 0.25321,0.32866 0.2465,-0.0217 c 0.22367,-0.0195 0.30923,-0.0564 0.92863,-0.40153 1.67452,-0.93316 3.56569,-1.74276 5.32629,-2.28048 0.3857,-0.1178 0.73551,-0.22773 0.77721,-0.24443 0.10657,-0.0426 -1.01232,-0.58542 -1.66812,-0.80925 -0.94456,-0.32236 -1.64233,-0.46965 -2.35799,-0.47904 z m -3.34605,0.23151 c -0.0264,-0.002 -0.15615,0.0342 -0.39378,0.10852 -1.97303,0.61674 -3.72622,1.95007 -4.85706,3.69383 -0.19952,0.30765 -0.51212,0.85827 -0.51212,0.90227 v 5.2e-4 c 0,0.0132 0.19178,-0.0456 0.42633,-0.13074 0.23456,-0.0851 0.45391,-0.1626 0.48731,-0.1726 0.0334,-0.01 0.0903,-0.0805 0.12661,-0.1571 0.28743,-0.60588 0.97817,-1.53377 1.62161,-2.17868 0.26639,-0.26701 0.4842,-0.50688 0.4842,-0.53278 0,-0.0714 0.0818,-0.13798 0.16899,-0.13798 0.0428,0 0.20594,-0.095 0.36225,-0.21135 0.5324,-0.39643 1.15578,-0.75354 1.85725,-1.0635 0.17766,-0.0785 0.25479,-0.11855 0.22841,-0.12041 z m 1.21284,0.0207 c -0.37885,0.002 -2.46708,0.99215 -3.15639,1.53892 -0.0604,0.0479 -0.0324,0.0851 0.32246,0.43615 0.21355,0.21125 0.39749,0.38422 0.40928,0.38448 0.16131,0.004 2.2946,-1.9768 2.47323,-2.29599 0.0247,-0.0442 0.006,-0.0639 -0.0486,-0.0636 z m 6.66833,1.30793 c -0.0127,-7e-4 -0.0243,7.3e-4 -0.0341,0.004 -0.032,0.009 -0.3228,0.0947 -0.64596,0.18965 -1.91089,0.56167 -3.73173,1.30985 -5.42861,2.23035 l -0.63304,0.34365 0.19276,0.0961 c 0.54707,0.27262 1.01699,0.98978 1.01699,1.55184 0,0.0686 0.007,0.12454 0.0145,0.12454 0.008,0 0.18192,-0.0608 0.38654,-0.13487 2.00294,-0.72504 4.55597,-0.87003 7.26571,-0.4129 0.53821,0.0908 1.5711,0.3095 1.62987,0.3452 0.092,0.0559 -0.40389,-0.79078 -0.89194,-1.52238 -0.72247,-1.08303 -2.47781,-2.79301 -2.87269,-2.81482 z m -10.40763,0.71107 -0.37931,0.3886 c -0.48773,0.49945 -0.92284,1.05176 -1.22421,1.55443 l -0.0853,0.14263 0.0925,-0.0351 c 0.43066,-0.16374 1.99885,-1.03148 1.99885,-1.10588 0,-0.0209 -0.0371,-0.1096 -0.0822,-0.1974 -0.0451,-0.0878 -0.1355,-0.29207 -0.20102,-0.45372 z m 0.60823,1.33325 c -0.005,-0.007 -0.19917,0.0994 -0.43046,0.23668 -0.46822,0.27793 -1.36692,0.73511 -1.86087,0.94671 l -0.32298,0.13849 -0.16485,0.36897 c -0.4514,1.01008 -0.75261,2.24119 -0.8232,3.36362 l -0.0264,0.41651 0.66043,-0.6444 c 1.05069,-1.02503 1.82037,-1.68641 2.93677,-2.52491 0.55799,-0.4191 0.662,-0.51377 0.74827,-0.68006 l 0.10025,-0.19327 -0.23874,-0.40463 c -0.13154,-0.22254 -0.3136,-0.54118 -0.40411,-0.70797 -0.0905,-0.16679 -0.16875,-0.30874 -0.17415,-0.31574 z m -3.13624,1.51929 -0.47233,0.15813 c -0.54755,0.18313 -0.4946,0.12183 -0.74,0.85576 -0.46209,1.38198 -0.64781,2.93649 -0.49713,4.15892 l 0.0196,0.15916 0.40928,-0.47697 0.40979,-0.47646 0.0222,-0.66818 c 0.0387,-1.15594 0.25929,-2.21894 0.68213,-3.28868 z m 12.14448,0.55862 c -1.10427,-0.006 -2.15347,0.0999 -3.08147,0.31936 -0.79996,0.18916 -1.73443,0.5244 -1.73633,0.6227 -6.7e-4,0.0347 -0.0477,0.15715 -0.10438,0.27182 l -0.10284,0.20825 0.35243,0.58757 c 0.42717,0.71178 1.03201,1.907 1.1498,2.27272 0.0473,0.14682 0.091,0.26717 0.0977,0.26717 0.007,0 0.18628,-0.0876 0.39894,-0.1943 2.32457,-1.16652 5.36151,-1.4631 8.68681,-0.84853 0.28951,0.0535 0.531142,0.0918 0.537442,0.0858 0.0769,-0.0769 -1.368612,-3.03549 -1.459352,-2.98689 -0.0435,0.0233 -0.15935,0.0114 -0.34674,-0.0362 -1.46146,-0.37081 -2.97221,-0.56229 -4.39198,-0.56947 z m -8.51266,0.30282 -0.54157,0.41703 c -1.07175,0.82474 -1.85363,1.51676 -2.88665,2.55488 l -0.69918,0.70229 0.0465,0.49557 c 0.11982,1.27928 0.45212,2.44891 1.01544,3.573946 0.24455,0.48843 0.2373,0.48635 0.35243,0.0946 0.64197,-2.184586 1.72835,-4.074366 3.17397,-5.520586 0.29996,-0.30008 0.54055,-0.54894 0.53485,-0.55294 -0.006,-0.004 -0.0715,-0.0435 -0.14624,-0.0884 -0.44108,-0.26493 -0.77313,-0.82901 -0.82476,-1.40095 z m 1.40973,1.96267 -0.32246,0.27957 c -1.43954,1.24776 -2.70262,3.3443 -3.41271,5.664766 -0.2315,0.75652 -0.23002,0.72763 -0.0408,1.00873 0.40919,0.60796 1.1255,1.53459 1.73581,2.24534 l 0.32195,0.37569 0.19585,-0.58395 c 0.9505,-2.83636 2.71465,-5.256396 4.63796,-6.361876 0.0383,-0.022 -0.0733,-0.1553 -0.41909,-0.49971 -0.50071,-0.49872 -0.81002,-0.85433 -1.42266,-1.63711 l -0.37982,-0.48525 -0.447,-0.003 z m 9.50536,1.32344 c -4.49275,-0.0201 -7.77082,1.88525 -9.7901,5.698866 -0.42711,0.80666 -1.13931,2.70564 -1.08934,2.90474 0.0289,0.11523 1.74996,1.837917 2.52336,2.525937 0.34401,0.30603 0.63547,0.55697 0.64803,0.55759 0.0126,6.2e-4 0.0348,-0.27615 0.0496,-0.61495 0.10576,-2.422737 0.78434,-4.797467 1.62522,-5.689057 0.0922,-0.0978 0.11801,-0.1515 0.094,-0.1943 -0.0182,-0.0325 -0.10013,-0.26603 -0.18242,-0.51935 -0.61925,-1.906356 -0.28442,-3.140376 0.85266,-3.140376 0.14344,0 0.22909,-0.0243 0.33332,-0.0951 0.77884,-0.52924 2.16878,0.0351 3.68711,1.49706 l 0.30334,0.29198 0.45475,0.0429 c 1.53595,0.1456 3.37477,0.696156 5.407432,1.619016 0.29619,0.13445 0.54322,0.23958 0.54932,0.23358 0.0661,-0.0661 -0.78216,-2.823066 -1.26246,-4.103106 l -0.21394,-0.57051 -0.686262,-0.12351 c -1.16565,-0.20998 -2.26689,-0.31678 -3.30368,-0.32142 z m -15.40061,0.86558 c -0.045,-0.008 -0.15268,0.11385 -0.40721,0.41754 l -0.36587,0.43667 0.0264,0.17932 c 0.20186,1.37253 0.96354,3.093976 1.94613,4.398176 0.0515,0.0683 0.0974,0.11969 0.10232,0.11369 0.005,-0.006 0.0565,-0.22713 0.11421,-0.49196 l 0.1049,-0.48163 -0.15245,-0.25786 c -0.70924,-1.19872 -1.33682,-3.156996 -1.33686,-4.171836 -10e-6,-0.0864 -0.005,-0.13747 -0.0315,-0.14211 z m 10.99726,0.77824 c -0.18764,0.006 -0.14419,0.0539 0.10232,0.17209 0.51824,0.24836 1.05891,0.6424 1.78232,1.29914 0.12809,0.11627 0.22231,0.17572 0.24443,0.15452 0.0198,-0.019 0.13079,-0.0349 0.2465,-0.0351 0.11571,-2e-4 0.27257,-0.0108 0.3483,-0.0233 l 0.13746,-0.0227 -0.27027,-0.24856 c -0.83937,-0.77223 -1.70958,-1.25441 -2.32544,-1.28881 -0.11489,-0.006 -0.20307,-0.009 -0.26562,-0.007 z m 2.36162,1.97043 0.15399,0.16123 c 0.57941,0.607786 1.4114,1.771376 2.29599,3.211166 0.11616,0.18912 0.15895,0.22951 0.24649,0.23151 0.0582,0.001 0.28493,0.0417 0.50385,0.0899 0.21891,0.0482 0.40201,0.0905 0.40721,0.0925 0.0261,0.0123 -0.58501,-0.96456 -0.95808,-1.53117 -0.6055,-0.91962 -1.14439,-1.63074 -1.58595,-2.093926 l -0.15348,-0.16123 h -0.45475 z m 1.48466,0.0377 0.13798,0.16123 c 0.56021,0.652976 1.42994,1.908596 2.16214,3.121766 l 0.36897,0.61082 0.48782,0.1757 c 0.94205,0.33929 2.240022,0.9493 3.183272,1.495517 0.21892,0.12677 0.40093,0.23154 0.40463,0.23254 0.07,0.0234 -0.26801,-2.295797 -0.48266,-3.310907 -0.0613,-0.28997 -0.11162,-0.53353 -0.11162,-0.54053 0,-0.007 -0.0182,-0.0129 -0.0408,-0.0129 -0.0226,0 -0.37649,-0.15189 -0.78652,-0.33745 -1.940352,-0.87815 -4.290992,-1.595766 -5.226552,-1.595766 z m -5.22604,2.030876 c -0.0162,0.01 -0.11677,0.16222 -0.22324,0.33849 -0.77746,1.28711 -1.20131,3.057147 -1.27072,5.306647 l -0.0222,0.72037 0.46663,0.36432 c 0.71797,0.56016 1.16107,0.88124 1.94252,1.40766 0.39491,0.26603 0.72784,0.48369 0.73949,0.48369 0.0117,0 0.0212,-0.61829 0.0212,-1.37407 0,-1.72873 0.1025,-2.48039 0.46509,-3.41168 l 0.1142,-0.29352 -0.12247,-0.16123 c -0.6933,-0.912397 -1.37397,-1.986677 -1.81178,-2.860287 -0.14838,-0.29608 -0.28253,-0.53039 -0.29869,-0.52039 z m -7.79745,0.20878 -0.0584,0.27337 c -0.032,0.15035 -0.0774,0.37056 -0.10077,0.48989 l -0.0424,0.21704 0.2806,0.35192 c 0.44197,0.55439 0.94407,1.14207 1.45831,1.70687 0.56488,0.620407 0.50198,0.605417 0.60875,0.145207 l 0.0873,-0.375687 -0.48524,-0.56534 c -0.54106,-0.6306 -0.94341,-1.13878 -1.42472,-1.79937 z m 14.49265,1.76268 c -0.11762,-5.6e-4 -0.0402,0.10732 0.14418,0.4191 0.42832,0.72426 0.99168,1.754477 1.48053,2.707317 l 0.47542,0.92656 0.16278,0.0243 c 0.0896,0.0133 0.31672,0.0838 0.504362,0.15658 0.18765,0.0728 0.34819,0.12531 0.35709,0.11731 0.0419,-0.0383 -1.236652,-2.48657 -1.917712,-3.672127 l -0.26097,-0.45475 -0.50436,-0.12661 c -0.23006,-0.0578 -0.37075,-0.0973 -0.44132,-0.0977 z m 1.5627,0.44028 c -0.007,3.7e-4 -0.0114,0.002 -0.014,0.005 -0.0104,0.0104 0.0916,0.21206 0.22686,0.44856 0.45032,0.787467 0.89628,1.632967 1.418522,2.689237 l 0.51677,1.04541 0.26716,0.13798 c 0.14701,0.0758 0.46356,0.24751 0.70332,0.38137 0.41764,0.23316 0.43708,0.24026 0.46302,0.16226 0.15091,-0.45376 0.25166,-3.03281 0.12041,-3.08301 -0.0394,-0.015 -0.19228,-0.0987 -0.34003,-0.18604 -0.99519,-0.58789 -3.153292,-1.611827 -3.362072,-1.600417 z m -13.51029,0.953427 -0.0853,0.37776 -0.0853,0.37775 0.27802,0.28319 c 0.67759,0.68965 1.77707,1.67183 2.75435,2.46083 0.26446,0.2135 0.48521,0.38864 0.49041,0.38964 0.005,10e-4 0.009,-0.15809 0.009,-0.35398 v -0.35605 l -0.3886,-0.33435 c -0.73608,-0.63254 -1.56525,-1.40992 -2.26808,-2.12648 z m 7.76593,0.62167 c -0.0525,-0.008 -0.0782,0.0863 -0.13745,0.27389 -0.30919,0.97881 -0.435,2.69168 -0.31213,4.24832 l 0.0315,0.39894 0.48059,0.27182 c 0.58458,0.33069 1.58339,0.81819 2.14768,1.04799 0.22933,0.0934 0.41702,0.1716 0.41702,0.1726 0,10e-4 2.2e-4,-0.43671 5.2e-4,-0.97358 5.5e-4,-0.98836 0.0437,-1.4201 0.18242,-1.82263 l 0.0506,-0.14676 -0.47025,-0.5457 c -0.53367,-0.61933 -1.67599,-2.0309 -2.09135,-2.58382 -0.16711,-0.22245 -0.24669,-0.33298 -0.29921,-0.34107 z m 6.49625,2.47375 c -0.007,0 0.11903,0.29406 0.28009,0.65371 0.161052,0.35964 0.372482,0.85879 0.469732,1.10898 0.31537,0.81131 0.4092,0.94381 0.73639,1.04231 0.14435,0.0435 0.23429,0.0434 0.38809,-5.2e-4 0.237,-0.0676 0.24784,-0.0876 0.13643,-0.25115 -0.055,-0.0807 -0.15232,-0.28279 -0.21601,-0.44958 -0.0637,-0.1668 -0.24511,-0.60814 -0.40307,-0.98082 l -0.28681,-0.67799 -0.27027,-0.12299 c -0.22745,-0.10366 -0.793552,-0.32195 -0.834572,-0.32195 z m -10.46861,0.41341 c -0.0354,-0.004 -0.0488,0.11016 -0.0403,0.34365 l 0.0124,0.34003 0.35709,0.25942 c 0.73419,0.53354 1.61934,1.10281 2.43964,1.56889 0.52341,0.29742 0.48615,0.29858 0.45424,-0.0129 -0.0242,-0.23652 -0.0291,-0.24598 -0.18139,-0.33228 -0.56335,-0.31938 -2.91128,-1.98234 -2.99878,-2.12391 -0.0168,-0.0272 -0.0311,-0.0417 -0.0429,-0.0429 z m 12.126912,0.3111 0.31057,0.76894 c 0.17073,0.42285 0.32249,0.78815 0.33745,0.81235 v 5.2e-4 c 0.015,0.0242 0.0413,0.0439 0.0584,0.0439 0.0503,0 0.34241,-0.84123 0.34313,-0.98806 2.7e-4,-0.0538 -0.4723,-0.34958 -0.89451,-0.56017 z m -4.996602,0.59841 -0.0656,0.33331 c -0.11172,0.56652 -0.12517,2.31602 -0.0186,2.42259 0.0758,0.0758 1.25553,0.36425 1.84691,0.45165 0.6527,0.0964 0.72037,0.0593 0.72037,-0.401 0,-0.29544 -0.0672,-0.39077 -0.67902,-0.96015 -0.31104,-0.28947 -0.84384,-0.82336 -1.18443,-1.18649 z m -3.47369,1.65106 c -0.04,6.2e-4 -0.0326,0.0471 -0.0326,0.12661 0,0.0792 -0.0203,0.16443 -0.045,0.18913 -0.0564,0.0564 -0.0685,0.0464 0.29145,0.22635 0.67585,0.33772 1.67205,0.73745 2.38797,0.95756 0.14594,0.0449 0.28249,0.087 0.30334,0.094 0.12613,0.0425 0.17769,-0.0412 0.10025,-0.1633 -0.0173,-0.0273 -0.27742,-0.14867 -0.57774,-0.26975 -0.68539,-0.27633 -1.29089,-0.56264 -1.92185,-0.90847 -0.32454,-0.17788 -0.45449,-0.25297 -0.50591,-0.25218 z m 3.45457,1.54513 c -0.0432,-7.1e-4 -0.0377,0.0274 -0.0377,0.0837 0,0.10379 0.25436,0.1703 1.00459,0.262 v -5.2e-4 c 0.42806,0.0523 0.47606,0.0151 0.0894,-0.0692 -0.2218,-0.0484 -0.54819,-0.13194 -0.72554,-0.18604 -0.19538,-0.0594 -0.28748,-0.0892 -0.33073,-0.0899 z" /></g></svg>
